<svg xmlns="http://www.w3.org/2000/svg" viewBox="0 5.440000057220459 180.25 32.52000045776367" data-asc="0.75" width="180.25" height="32.52000045776367"><defs/><g fill="#ffffff"><g transform="translate(0, 0)"><path d="M28.25 21.34Q28.25 25.17 27.34 28.25Q26.44 31.32 24.65 33.48Q22.85 35.64 20.14 36.80Q17.43 37.96 13.82 37.96Q10.25 37.96 7.65 36.90Q5.05 35.84 3.36 33.81Q1.66 31.79 0.83 28.78Q0 25.78 0 21.88Q0 18.14 0.90 15.09Q1.81 12.04 3.61 9.90Q5.42 7.76 8.13 6.60Q10.84 5.44 14.45 5.44Q17.94 5.44 20.53 6.49Q23.12 7.54 24.84 9.56Q26.56 11.57 27.40 14.54Q28.25 17.50 28.25 21.34M23.83 21.63Q23.83 18.95 23.35 16.64Q22.88 14.33 21.77 12.63Q20.65 10.94 18.80 9.99Q16.94 9.03 14.21 9.03Q11.47 9.03 9.62 10.06Q7.76 11.08 6.60 12.79Q5.44 14.50 4.94 16.78Q4.44 19.07 4.44 21.58Q4.44 24.37 4.91 26.71Q5.37 29.05 6.47 30.75Q7.57 32.45 9.41 33.39Q11.25 34.33 14.04 34.33Q16.80 34.33 18.68 33.30Q20.56 32.28 21.70 30.53Q22.85 28.78 23.34 26.49Q23.83 24.19 23.83 21.63ZM53.25 36.89Q53.25 37.08 53.16 37.22Q53.08 37.35 52.86 37.45Q52.64 37.55 52.28 37.60Q51.93 37.65 51.42 37.65Q50.85 37.65 50.50 37.60Q50.15 37.55 49.94 37.45Q49.73 37.35 49.66 37.22Q49.58 37.08 49.58 36.89L49.58 33.98Q47.71 36.06 45.87 37.01Q44.04 37.96 42.16 37.96Q39.97 37.96 38.46 37.23Q36.96 36.50 36.04 35.24Q35.11 33.98 34.70 32.31Q34.30 30.64 34.30 28.25L34.30 14.92Q34.30 14.72 34.39 14.59Q34.47 14.45 34.72 14.34Q34.96 14.23 35.35 14.20Q35.74 14.16 36.33 14.16Q36.91 14.16 37.30 14.20Q37.70 14.23 37.93 14.34Q38.16 14.45 38.26 14.59Q38.35 14.72 38.35 14.92L38.35 27.71Q38.35 29.64 38.64 30.80Q38.92 31.96 39.49 32.78Q40.06 33.59 40.94 34.05Q41.82 34.50 42.99 34.50Q44.51 34.50 46.01 33.42Q47.51 32.35 49.19 30.27L49.19 14.92Q49.19 14.72 49.28 14.59Q49.37 14.45 49.61 14.34Q49.85 14.23 50.23 14.20Q50.61 14.16 51.22 14.16Q51.81 14.16 52.20 14.20Q52.59 14.23 52.81 14.34Q53.03 14.45 53.14 14.59Q53.25 14.72 53.25 14.92L53.25 36.89ZM74.49 30.91Q74.49 32.59 73.86 33.91Q73.24 35.23 72.09 36.13Q70.95 37.04 69.36 37.50Q67.77 37.96 65.87 37.96Q64.70 37.96 63.64 37.78Q62.57 37.60 61.73 37.32Q60.89 37.04 60.30 36.73Q59.72 36.43 59.45 36.18Q59.18 35.94 59.06 35.50Q58.94 35.06 58.94 34.30Q58.94 33.84 58.98 33.52Q59.03 33.20 59.11 33.01Q59.18 32.81 59.31 32.73Q59.45 32.64 59.62 32.64Q59.89 32.64 60.41 32.97Q60.94 33.30 61.71 33.69Q62.48 34.08 63.53 34.41Q64.58 34.74 65.94 34.74Q66.97 34.74 67.80 34.52Q68.63 34.30 69.24 33.87Q69.85 33.45 70.18 32.79Q70.51 32.13 70.51 31.23Q70.51 30.30 70.03 29.66Q69.56 29.03 68.77 28.54Q67.99 28.05 67.02 27.67Q66.04 27.29 65.00 26.88Q63.96 26.46 62.98 25.94Q61.99 25.42 61.21 24.66Q60.42 23.90 59.95 22.85Q59.47 21.80 59.47 20.34Q59.47 19.04 59.97 17.86Q60.47 16.67 61.47 15.78Q62.48 14.89 63.98 14.36Q65.48 13.82 67.48 13.82Q68.36 13.82 69.24 13.96Q70.12 14.11 70.83 14.33Q71.53 14.55 72.03 14.81Q72.53 15.06 72.79 15.26Q73.05 15.45 73.13 15.60Q73.22 15.75 73.25 15.93Q73.29 16.11 73.33 16.38Q73.36 16.65 73.36 17.04Q73.36 17.46 73.33 17.76Q73.29 18.07 73.21 18.26Q73.12 18.46 73.00 18.54Q72.88 18.63 72.73 18.63Q72.51 18.63 72.09 18.36Q71.68 18.09 71.02 17.79Q70.36 17.48 69.47 17.21Q68.58 16.94 67.43 16.94Q66.41 16.94 65.63 17.18Q64.84 17.41 64.34 17.83Q63.84 18.26 63.59 18.85Q63.33 19.43 63.33 20.12Q63.33 21.07 63.82 21.72Q64.31 22.36 65.09 22.85Q65.87 23.34 66.87 23.73Q67.87 24.12 68.91 24.54Q69.95 24.95 70.96 25.46Q71.97 25.98 72.75 26.71Q73.54 27.44 74.01 28.47Q74.49 29.49 74.49 30.91ZM94.04 30.91Q94.04 32.59 93.42 33.91Q92.80 35.23 91.65 36.13Q90.50 37.04 88.92 37.50Q87.33 37.96 85.42 37.96Q84.25 37.96 83.19 37.78Q82.13 37.60 81.29 37.32Q80.44 37.04 79.86 36.73Q79.27 36.43 79.00 36.18Q78.74 35.94 78.61 35.50Q78.49 35.06 78.49 34.30Q78.49 33.84 78.54 33.52Q78.59 33.20 78.66 33.01Q78.74 32.81 78.87 32.73Q79.00 32.64 79.17 32.64Q79.44 32.64 79.97 32.97Q80.49 33.30 81.26 33.69Q82.03 34.08 83.08 34.41Q84.13 34.74 85.50 34.74Q86.52 34.74 87.35 34.52Q88.18 34.30 88.79 33.87Q89.40 33.45 89.73 32.79Q90.06 32.13 90.06 31.23Q90.06 30.30 89.59 29.66Q89.11 29.03 88.33 28.54Q87.55 28.05 86.57 27.67Q85.60 27.29 84.56 26.88Q83.52 26.46 82.53 25.94Q81.54 25.42 80.76 24.66Q79.98 23.90 79.50 22.85Q79.03 21.80 79.03 20.34Q79.03 19.04 79.53 17.86Q80.03 16.67 81.03 15.78Q82.03 14.89 83.53 14.36Q85.03 13.82 87.04 13.82Q87.92 13.82 88.79 13.96Q89.67 14.11 90.38 14.33Q91.09 14.55 91.59 14.81Q92.09 15.06 92.35 15.26Q92.60 15.45 92.69 15.60Q92.77 15.75 92.81 15.93Q92.85 16.11 92.88 16.38Q92.92 16.65 92.92 17.04Q92.92 17.46 92.88 17.76Q92.85 18.07 92.76 18.26Q92.68 18.46 92.55 18.54Q92.43 18.63 92.29 18.63Q92.07 18.63 91.65 18.36Q91.24 18.09 90.58 17.79Q89.92 17.48 89.03 17.21Q88.13 16.94 86.99 16.94Q85.96 16.94 85.18 17.18Q84.40 17.41 83.90 17.83Q83.40 18.26 83.14 18.85Q82.89 19.43 82.89 20.12Q82.89 21.07 83.37 21.72Q83.86 22.36 84.64 22.85Q85.42 23.34 86.43 23.73Q87.43 24.12 88.46 24.54Q89.50 24.95 90.52 25.46Q91.53 25.98 92.31 26.71Q93.09 27.44 93.57 28.47Q94.04 29.49 94.04 30.91ZM116.36 36.91Q116.36 37.21 116.16 37.35Q115.97 37.50 115.63 37.57Q115.28 37.65 114.62 37.65Q113.99 37.65 113.61 37.57Q113.23 37.50 113.06 37.35Q112.89 37.21 112.89 36.91L112.89 34.72Q111.45 36.25 109.68 37.11Q107.91 37.96 105.93 37.96Q104.20 37.96 102.80 37.51Q101.39 37.06 100.40 36.21Q99.41 35.35 98.86 34.11Q98.32 32.86 98.32 31.27Q98.32 29.42 99.07 28.05Q99.83 26.68 101.25 25.78Q102.66 24.88 104.71 24.43Q106.76 23.97 109.33 23.97L112.35 23.97L112.35 22.27Q112.35 21.00 112.08 20.02Q111.82 19.04 111.22 18.40Q110.62 17.75 109.67 17.42Q108.72 17.09 107.32 17.09Q105.83 17.09 104.65 17.44Q103.47 17.80 102.58 18.23Q101.68 18.65 101.09 19.01Q100.49 19.36 100.20 19.36Q100 19.36 99.85 19.26Q99.71 19.17 99.60 18.97Q99.49 18.77 99.44 18.47Q99.39 18.16 99.39 17.80Q99.39 17.19 99.48 16.83Q99.56 16.48 99.89 16.16Q100.22 15.84 101.03 15.42Q101.83 14.99 102.88 14.64Q103.93 14.28 105.18 14.05Q106.42 13.82 107.69 13.82Q110.06 13.82 111.72 14.36Q113.38 14.89 114.40 15.93Q115.43 16.97 115.89 18.51Q116.36 20.04 116.36 22.09L116.36 36.91M112.35 26.88L108.91 26.88Q107.25 26.88 106.03 27.16Q104.81 27.44 104.00 27.99Q103.20 28.54 102.82 29.31Q102.44 30.08 102.44 31.08Q102.44 32.79 103.53 33.80Q104.61 34.81 106.57 34.81Q108.15 34.81 109.51 34.01Q110.86 33.20 112.35 31.54L112.35 26.88ZM156.35 36.89Q156.35 37.08 156.25 37.22Q156.15 37.35 155.93 37.45Q155.71 37.55 155.32 37.60Q154.93 37.65 154.35 37.65Q153.74 37.65 153.34 37.60Q152.95 37.55 152.72 37.45Q152.49 37.35 152.39 37.22Q152.29 37.08 152.29 36.89L152.29 23.54Q152.29 22.14 152.05 21.00Q151.81 19.85 151.27 19.02Q150.73 18.19 149.90 17.75Q149.07 17.31 147.95 17.31Q146.56 17.31 145.15 18.38Q143.75 19.46 142.07 21.53L142.07 36.89Q142.07 37.08 141.97 37.22Q141.87 37.35 141.64 37.45Q141.41 37.55 141.02 37.60Q140.63 37.65 140.04 37.65Q139.48 37.65 139.07 37.60Q138.67 37.55 138.44 37.45Q138.21 37.35 138.12 37.22Q138.04 37.08 138.04 36.89L138.04 23.54Q138.04 22.14 137.77 21.00Q137.50 19.85 136.96 19.02Q136.43 18.19 135.61 17.75Q134.79 17.31 133.67 17.31Q132.28 17.31 130.86 18.38Q129.44 19.46 127.78 21.53L127.78 36.89Q127.78 37.08 127.69 37.22Q127.59 37.35 127.37 37.45Q127.15 37.55 126.76 37.60Q126.37 37.65 125.76 37.65Q125.17 37.65 124.78 37.60Q124.39 37.55 124.16 37.45Q123.93 37.35 123.84 37.22Q123.75 37.08 123.75 36.89L123.75 14.92Q123.75 14.72 123.83 14.59Q123.90 14.45 124.12 14.34Q124.34 14.23 124.68 14.20Q125.02 14.16 125.59 14.16Q126.12 14.16 126.48 14.20Q126.83 14.23 127.03 14.34Q127.22 14.45 127.31 14.59Q127.39 14.72 127.39 14.92L127.39 17.82Q129.25 15.75 130.99 14.78Q132.74 13.82 134.52 13.82Q135.89 13.82 136.98 14.14Q138.06 14.45 138.89 15.03Q139.72 15.60 140.31 16.39Q140.89 17.19 141.28 18.16Q142.38 16.97 143.37 16.14Q144.36 15.31 145.28 14.79Q146.19 14.28 147.06 14.05Q147.92 13.82 148.80 13.82Q150.93 13.82 152.37 14.56Q153.81 15.31 154.70 16.55Q155.59 17.80 155.97 19.47Q156.35 21.14 156.35 23.00L156.35 36.89ZM180.25 36.91Q180.25 37.21 180.05 37.35Q179.86 37.50 179.52 37.57Q179.17 37.65 178.52 37.65Q177.88 37.65 177.50 37.57Q177.12 37.50 176.95 37.35Q176.78 37.21 176.78 36.91L176.78 34.72Q175.34 36.25 173.57 37.11Q171.80 37.96 169.82 37.96Q168.09 37.96 166.69 37.51Q165.28 37.06 164.29 36.21Q163.31 35.35 162.76 34.11Q162.21 32.86 162.21 31.27Q162.21 29.42 162.96 28.05Q163.72 26.68 165.14 25.78Q166.55 24.88 168.60 24.43Q170.65 23.97 173.22 23.97L176.25 23.97L176.25 22.27Q176.25 21.00 175.98 20.02Q175.71 19.04 175.11 18.40Q174.51 17.75 173.56 17.42Q172.61 17.09 171.22 17.09Q169.73 17.09 168.54 17.44Q167.36 17.80 166.47 18.23Q165.58 18.65 164.98 19.01Q164.38 19.36 164.09 19.36Q163.89 19.36 163.75 19.26Q163.60 19.17 163.49 18.97Q163.38 18.77 163.33 18.47Q163.28 18.16 163.28 17.80Q163.28 17.19 163.37 16.83Q163.45 16.48 163.78 16.16Q164.11 15.84 164.92 15.42Q165.72 14.99 166.77 14.64Q167.82 14.28 169.07 14.05Q170.31 13.82 171.58 13.82Q173.95 13.82 175.61 14.36Q177.27 14.89 178.30 15.93Q179.32 16.97 179.79 18.51Q180.25 20.04 180.25 22.09L180.25 36.91M176.25 26.88L172.80 26.88Q171.14 26.88 169.92 27.16Q168.70 27.44 167.90 27.99Q167.09 28.54 166.71 29.31Q166.33 30.08 166.33 31.08Q166.33 32.79 167.42 33.80Q168.51 34.81 170.46 34.81Q172.05 34.81 173.40 34.01Q174.76 33.20 176.25 31.54L176.25 26.88Z"/></g></g></svg>